<?xml version="1.0" standalone="no"?>
<!DOCTYPE svg PUBLIC "-//W3C//DTD SVG 20010904//EN"
 "http://www.w3.org/TR/2001/REC-SVG-20010904/DTD/svg10.dtd">
<svg version="1.0" xmlns="http://www.w3.org/2000/svg"
 width="358.000000pt" height="358.000000pt" viewBox="0 0 358.000000 358.000000"
 preserveAspectRatio="xMidYMid meet">
<metadata>
Created by potrace 1.11, written by Peter Selinger 2001-2013
</metadata>
<g transform="translate(0.000000,358.000000) scale(0.100000,-0.100000)"
fill="#000000" stroke="none">
<path d="M1705 3074 c-215 -25 -396 -72 -540 -140 -28 -13 -55 -24 -61 -24 -6
0 -19 -8 -30 -17 -11 -10 -40 -28 -65 -41 -159 -80 -422 -355 -539 -562 -83
-148 -156 -357 -175 -505 -9 -69 -9 -376 0 -455 30 -281 186 -599 404 -825
143 -148 231 -217 397 -309 l101 -56 613 0 613 0 101 56 c144 80 216 134 335
249 163 158 271 307 353 491 39 85 91 249 103 324 4 25 9 54 12 65 11 54 3
426 -12 507 -41 232 -168 502 -324 688 -99 118 -266 270 -297 270 -8 0 -19 9
-26 20 -7 11 -18 20 -25 20 -6 0 -13 3 -15 8 -3 7 -35 25 -143 80 -27 14 -52
28 -55 31 -3 3 -14 8 -25 9 -11 2 -36 11 -55 19 -19 9 -39 17 -45 18 -5 2 -55
14 -110 28 -55 14 -122 29 -150 33 -27 3 -59 8 -70 10 -30 6 -235 12 -270 8z"/>
</g>
</svg>
