<?xml version="1.0" standalone="no"?>
<!DOCTYPE svg PUBLIC "-//W3C//DTD SVG 20010904//EN"
 "http://www.w3.org/TR/2001/REC-SVG-20010904/DTD/svg10.dtd">
<svg version="1.0" xmlns="http://www.w3.org/2000/svg"
 width="700.000000pt" height="700.000000pt" viewBox="0 0 700.000000 700.000000"
 preserveAspectRatio="xMidYMid meet">
<metadata>
Created by potrace 1.11, written by Peter Selinger 2001-2013
</metadata>
<g transform="translate(0.000000,700.000000) scale(0.100000,-0.100000)"
fill="#000000" stroke="none">
<path d="M3347 6985 c-1 -1 -45 -5 -97 -9 -181 -12 -387 -43 -570 -87 -141
-34 -426 -127 -505 -164 -28 -14 -55 -25 -59 -25 -14 0 -303 -148 -381 -195
-170 -103 -347 -229 -495 -354 -81 -68 -298 -285 -371 -371 -128 -149 -349
-459 -349 -488 0 -6 -3 -12 -7 -14 -15 -6 -166 -297 -208 -398 -61 -148 -140
-384 -171 -508 -29 -122 -58 -266 -70 -352 -1 -14 -5 -38 -8 -55 -5 -33 -17
-156 -21 -225 -5 -66 -5 -408 0 -460 18 -203 22 -236 46 -365 19 -106 27 -144
48 -230 5 -22 12 -51 15 -64 3 -13 13 -47 21 -75 9 -28 23 -76 32 -106 10 -30
21 -59 25 -65 4 -5 8 -18 8 -30 0 -12 4 -25 8 -30 5 -6 21 -44 37 -85 35 -93
152 -341 186 -395 14 -22 28 -48 32 -57 10 -28 153 -244 226 -342 36 -49 65
-94 63 -100 -2 -6 -1 -8 3 -4 4 3 36 -28 73 -70 141 -164 245 -267 397 -395
27 -23 61 -53 75 -67 15 -14 29 -25 32 -25 2 0 18 -10 34 -22 76 -59 162 -120
186 -132 15 -8 24 -19 21 -25 -3 -6 -3 -8 2 -4 4 4 32 -8 61 -27 30 -19 57
-35 60 -35 3 0 20 -10 37 -22 16 -12 90 -52 163 -88 74 -37 130 -71 126 -75
-4 -5 -2 -5 5 -1 15 8 93 -22 93 -37 0 -6 3 -8 6 -4 3 3 29 -3 58 -15 88 -35
266 -96 317 -108 27 -7 47 -15 45 -18 -2 -4 8 -7 22 -8 15 0 38 -3 52 -6 60
-14 86 -21 94 -26 5 -3 23 -6 40 -8 17 -2 42 -6 56 -9 52 -12 189 -33 243 -37
15 -1 27 -5 27 -8 0 -3 37 -6 81 -7 48 -1 88 -8 97 -15 10 -8 13 -9 9 -1 -5 8
8 10 50 7 32 -3 69 -4 83 -4 14 1 31 1 38 1 28 -2 43 -2 164 3 117 4 292 20
363 32 17 3 44 7 60 9 17 2 55 8 85 14 51 10 70 14 125 26 11 3 31 7 44 10 13
2 49 12 80 21 31 9 61 17 66 18 6 1 51 15 100 31 50 16 96 29 103 28 6 0 12 3
12 8 0 5 6 9 13 9 41 0 380 156 542 250 108 62 326 207 375 250 19 16 38 30
42 30 4 0 13 6 20 13 7 7 45 40 83 72 105 88 213 193 336 326 291 315 565 780
702 1189 32 97 94 307 102 347 21 109 44 237 49 273 3 25 8 55 10 67 21 106
30 656 13 788 -4 33 -10 83 -13 110 -5 43 -43 257 -57 320 -14 61 -41 160 -64
235 -15 47 -27 87 -28 90 -3 16 -28 88 -35 105 -5 11 -23 56 -40 100 -33 86
-175 380 -195 405 -7 8 -23 35 -36 60 -22 41 -131 208 -190 291 -116 162 -383
448 -544 585 -140 118 -365 279 -490 349 -181 102 -272 148 -427 213 -333 140
-677 224 -1058 258 -68 6 -427 13 -433 9z"/>
</g>
</svg>
